HIERARCHY
ROOT Hips
{
 OFFSET 0.000000 0.000000 0.000000
 CHANNELS 6 Xposition Yposition Zposition Yrotation Xrotation Zrotation
 JOINT Chest
 {
  OFFSET 0.000000 9.585900 0.002600
  CHANNELS 3 Yrotation Xrotation Zrotation
  JOINT Chest2
  {
   OFFSET 0.000000 9.601200 -0.005300
   CHANNELS 3 Yrotation Xrotation Zrotation
   JOINT Chest3
   {
    OFFSET 0.000000 9.561800 0.000000
    CHANNELS 3 Yrotation Xrotation Zrotation
    JOINT Chest4
    {
     OFFSET 0.000000 9.552100 0.000000
     CHANNELS 3 Yrotation Xrotation Zrotation
     JOINT Neck
     {
      OFFSET 0.000000 14.453000 0.000000
      CHANNELS 3 Yrotation Xrotation Zrotation
      JOINT Head
      {
       OFFSET 0.000000 8.936500 -0.011300
       CHANNELS 3 Yrotation Xrotation Zrotation
       End Site
       {
        OFFSET 0.000000 17.073600 -0.006000
       }
      }
     }
     JOINT RightCollar
     {
      OFFSET -2.921100 9.558500 0.000000
      CHANNELS 3 Yrotation Xrotation Zrotation
      JOINT RightShoulder
      {
       OFFSET -13.519700 0.000000 0.000000
       CHANNELS 3 Yrotation Xrotation Zrotation
       JOINT RightElbow
       {
        OFFSET 0.000000 -29.696600 0.000000
        CHANNELS 3 Yrotation Xrotation Zrotation
        JOINT RightWrist
        {
         OFFSET 0.000000 -24.004700 0.000000
         CHANNELS 3 Yrotation Xrotation Zrotation
         End Site
         {
          OFFSET 0.000000 -17.728500 0.000000
         }
        }
       }
      }
     }
     JOINT LeftCollar
     {
      OFFSET 2.921100 9.558500 0.000000
      CHANNELS 3 Yrotation Xrotation Zrotation
      JOINT LeftShoulder
      {
       OFFSET 13.519700 0.000000 0.000000
       CHANNELS 3 Yrotation Xrotation Zrotation
       JOINT LeftElbow
       {
        OFFSET 0.000000 -29.696600 0.000000
        CHANNELS 3 Yrotation Xrotation Zrotation
        JOINT LeftWrist
        {
         OFFSET 0.000000 -24.004700 0.000000
         CHANNELS 3 Yrotation Xrotation Zrotation
         End Site
         {
          OFFSET 0.000000 -17.728500 0.000000
         }
        }
       }
      }
     }
    }
   }
  }
 }
 JOINT RightHip
 {
  OFFSET -7.771700 -0.012900 -0.001300
  CHANNELS 3 Yrotation Xrotation Zrotation
  JOINT RightKnee
  {
   OFFSET 0.000000 -40.869800 0.001200
   CHANNELS 3 Yrotation Xrotation Zrotation
   JOINT RightAnkle
   {
    OFFSET 0.000000 -39.717900 0.002100
    CHANNELS 3 Yrotation Xrotation Zrotation
    JOINT RightToe
    {
     OFFSET 0.000000 -4.965400 11.033500
     CHANNELS 3 Yrotation Xrotation Zrotation
     End Site
     {
      OFFSET 0.000000 -1.423100 5.872300
     }
    }
   }
  }
 }
 JOINT LeftHip
 {
  OFFSET 7.771700 -0.012900 -0.001300
  CHANNELS 3 Yrotation Xrotation Zrotation
  JOINT LeftKnee
  {
   OFFSET 0.000000 -40.869800 0.001200
   CHANNELS 3 Yrotation Xrotation Zrotation
   JOINT LeftAnkle
   {
    OFFSET 0.000000 -39.717900 0.002100
    CHANNELS 3 Yrotation Xrotation Zrotation
    JOINT LeftToe
    {
     OFFSET 0.000000 -4.965400 11.033500
     CHANNELS 3 Yrotation Xrotation Zrotation
     End Site
     {
      OFFSET 0.000000 -1.423100 5.872300
     }
    }
   }
  }
 }
}
MOTION
Frames: 9
Frame Time: 0.008333
-110.118294 52.606438 -43.598716 178.478078 -23.161082 -1.360691 -4.990017 12.752482 1.269055 -0.428983 1.068528 0.149036 -0.725386 1.811414 0.247934 -4.518383 11.526543 1.194334 -2.795497 17.312482 -0.716910 -2.745103 -7.502729 -0.142760 2.561976 16.481321 10.086526 17.794318 -8.393547 -36.645268 144.153805 -43.252186 174.848889 -2.313755 2.644315 -9.914695 -2.855034 14.580823 -14.951651 -25.598032 -2.257370 42.016185 -138.298160 -46.630047 178.716206 15.019705 2.948719 21.464811 -14.071688 -58.792437 6.599983 -72.458200 79.961931 -80.132853 -3.954003 -8.627548 6.677803 -0.064577 1.060262 -0.541877 8.191067 -57.258153 -8.203661 26.906981 82.990671 33.357860 -2.009533 -9.603150 -0.126234 -0.068952 -0.162227 0.003016
-110.121567 52.607552 -43.626429 178.544086 -23.163458 -1.374950 -4.939800 12.734989 1.264339 -0.424491 1.064846 0.148352 -0.717987 1.805437 0.246866 -4.481786 11.514995 1.194389 -2.802293 17.296987 -0.738885 -2.787410 -7.510167 -0.142016 2.556459 16.472532 10.092998 17.764143 -8.426670 -36.585445 144.335746 -43.207638 174.685487 -2.297244 2.673016 -10.123721 -2.855899 14.589863 -14.921163 -25.508250 -2.292471 41.914859 -138.335403 -46.632889 178.770368 15.046269 2.950804 21.411402 -14.073122 -58.850251 6.630543 -74.004519 79.884808 -81.720836 -3.984326 -9.237191 6.876964 -0.070536 1.189136 -0.517101 8.348093 -57.258990 -8.345765 26.765832 83.043895 33.279416 -2.026851 -9.612218 -0.104469 -0.052348 -0.171646 0.013867
-110.128408 52.607572 -43.658837 178.617747 -23.184267 -1.376143 -4.958423 12.743810 1.236913 -0.367731 1.049065 0.138407 -0.710072 1.798156 0.245596 -4.443547 11.499567 1.194322 -2.832018 17.291077 -0.742572 -2.818150 -7.515708 -0.139215 2.550800 16.470650 10.098541 17.722383 -8.457077 -36.535875 144.561720 -43.155034 174.494634 -2.283769 2.689209 -10.301712 -2.850756 14.601355 -14.891512 -25.434105 -2.330671 41.818809 -138.368407 -46.636735 178.820034 15.067990 2.948773 21.341221 -14.062753 -58.897732 6.647132 -75.519640 79.809043 -83.292474 -4.039783 -9.838494 7.074397 -0.073862 1.286268 -0.489728 8.467223 -57.243623 -8.462712 26.879765 83.100408 33.393278 -2.047480 -9.642156 -0.041208 -0.066227 -0.176003 0.010738
-110.137446 52.605238 -43.692040 178.724483 -23.201051 -1.383652 -4.932370 12.728762 1.206745 -0.389240 1.049570 0.142316 -0.702131 1.789973 0.244082 -4.406159 11.481093 1.193071 -2.857474 17.284135 -0.743911 -2.844891 -7.522480 -0.134846 2.545565 16.470566 10.101409 17.677716 -8.478120 -36.493853 144.841984 -43.088784 174.268159 -2.275880 2.699736 -10.456702 -2.842507 14.611059 -14.865175 -25.373789 -2.368420 41.730428 -138.382810 -46.645089 178.860106 15.082999 2.937031 21.261433 -14.093191 -58.949004 6.676167 -76.923953 79.751249 -84.762698 -4.127869 -10.409772 7.260931 -0.068505 1.345904 -0.459770 8.491375 -57.232101 -8.545792 27.145766 83.143667 33.626288 -2.061988 -9.683829 0.019753 -0.073445 -0.159388 -0.008116
-110.142511 52.600278 -43.723864 178.774452 -23.205879 -1.399890 -4.851837 12.702927 1.210071 -0.460652 1.064234 0.154141 -0.643782 1.766887 0.232760 -4.368963 11.460715 1.189854 -2.878089 17.275062 -0.741855 -2.867257 -7.531598 -0.127926 2.541126 16.468201 10.101646 17.637515 -8.485082 -36.454067 145.184918 -43.006550 173.995350 -2.278044 2.709417 -10.595702 -2.832862 14.617586 -14.841106 -25.321697 -2.404867 41.648080 -138.372115 -46.655880 178.882064 15.087789 2.909910 21.175352 -14.142782 -59.001905 6.790129 -78.176593 79.702335 -86.084728 -4.221858 -10.943591 7.430649 -0.065340 1.376084 -0.429388 8.608684 -57.240903 -8.627245 27.197617 83.211900 33.692400 -2.097527 -9.717490 0.072320 -0.065334 -0.160121 -0.005674
-110.147015 52.592921 -43.753874 178.809871 -23.197085 -1.422061 -4.787934 12.672818 1.221849 -0.429275 1.051162 0.148829 -0.660921 1.764797 0.235385 -4.327714 11.439126 1.186808 -2.894773 17.263178 -0.735351 -2.886374 -7.543919 -0.117294 2.536579 16.460746 10.100405 17.600585 -8.478300 -36.418415 145.622543 -42.909097 173.642511 -2.290365 2.722558 -10.723821 -2.824718 14.619673 -14.818435 -25.271014 -2.443161 41.571534 -138.337705 -46.669910 178.880255 15.078628 2.859931 21.074750 -14.210458 -59.060407 6.943783 -79.283274 79.652945 -87.262581 -4.320567 -11.424743 7.583531 -0.063831 1.372989 -0.395417 8.712614 -57.265165 -8.691744 27.153804 83.276669 33.679774 -2.125909 -9.741291 0.097550 -0.042949 -0.161537 0.004771
-110.154633 52.585376 -43.786443 178.848239 -23.204809 -1.435996 -4.777895 12.670943 1.219977 -0.358473 1.030364 0.131798 -0.675741 1.761923 0.238622 -4.282335 11.416483 1.185318 -2.907737 17.247719 -0.724762 -2.902461 -7.560342 -0.103254 2.534969 16.448163 10.098732 17.562352 -8.462646 -36.392683 146.203276 -42.793134 173.170363 -2.316162 2.745096 -10.843833 -2.818964 14.615093 -14.799611 -25.217414 -2.483016 41.503681 -138.286217 -46.694338 178.861099 15.053999 2.778406 20.945849 -14.254155 -59.099728 7.069727 -80.253649 79.599963 -88.303611 -4.425611 -11.841685 7.721964 -0.061476 1.334239 -0.356639 8.785972 -57.273871 -8.733710 27.320374 83.345019 33.828091 -2.136347 -9.784719 0.148680 -0.062136 -0.158884 0.010304
-110.159101 52.573700 -43.811037 178.838377 -23.165783 -1.462240 -4.718741 12.625791 1.252513 -0.317773 1.016923 0.118648 -0.666080 1.751615 0.236886 -4.236505 11.392454 1.184314 -2.916584 17.229463 -0.712051 -2.914644 -7.579874 -0.087826 2.541243 16.434913 10.097626 17.522667 -8.442490 -36.378991 146.955205 -42.654632 172.557102 -2.377050 2.776374 -10.950349 -2.814723 14.604484 -14.786103 -25.160047 -2.521839 41.441955 -138.217737 -46.737188 178.829184 15.019835 2.644816 20.773458 -14.317239 -59.172944 7.265068 -80.903446 79.521457 -88.992822 -4.513183 -12.161320 7.803271 -0.033641 1.268492 -0.303100 8.854663 -57.336902 -8.721402 27.510869 83.412505 33.995898 -2.160908 -9.838799 0.209163 -0.078965 -0.148310 0.010598
-110.172967 52.563641 -43.842493 178.892017 -23.174113 -1.470222 -4.691535 12.617429 1.232369 -0.355470 1.021854 0.129487 -0.619891 1.731439 0.221727 -4.191588 11.366867 1.182781 -2.921589 17.209182 -0.697974 -2.922955 -7.601629 -0.071771 2.552314 16.423564 10.096931 17.485913 -8.420795 -36.374970 147.886153 -42.492221 171.797210 -2.493897 2.809908 -11.040164 -2.811957 14.589653 -14.776401 -25.102651 -2.561256 41.379894 -138.132587 -46.812194 178.783149 14.986262 2.417204 20.541762 -14.341511 -59.202485 7.348798 -81.726145 79.474263 -89.899597 -4.581270 -12.478138 7.935447 -0.052767 1.179742 -0.268295 8.905897 -57.343348 -8.772205 27.689862 83.466692 34.155107 -2.197540 -9.876675 0.257280 -0.076625 -0.143473 0.016359
